<?xml version="1.0" encoding="iso-8859-1"?>
<!-- Generator: Adobe Illustrator 19.0.0, SVG Export Plug-In . SVG Version: 6.00 Build 0)  -->
<svg version="1.1" id="Capa_1" xmlns="http://www.w3.org/2000/svg" xmlns:xlink="http://www.w3.org/1999/xlink" x="0px" y="0px"
	 viewBox="0 0 362.1 362.1" style="enable-background:new 0 0 362.1 362.1;" xml:space="preserve">
<g>
	<path style="fill:#ED664C;" d="M351.5,164.85v38.2l-27.9,2.7c-2.7,12.6-7.8,24.2-14.6,34.7l18,21.8l-26.9,26.9l-21.8-18
		c-10.2,6.8-22.1,11.9-34.7,14.6l-2.7,28.3h-41.1h-0.9v-39.6v-40.7l0,0c7,3.2,14.7,5,22.9,5c30.2,0,54.7-24.5,54.7-54.7
		s-24.5-54.7-54.7-54.7c-8.2,0-15.9,1.8-22.9,5v-80.4h0.8h41.2l2.7,28.3c12.6,2.7,24.2,7.8,34.7,14.6l21.8-18l26.6,26.9l-18,21.8
		c6.8,10.2,11.9,22.1,14.6,34.7L351.5,164.85z"/>
	<path style="fill:#ED664C;" d="M198.9,233.65v40.7h-0.1H84.5H36.4c-14.5,0-26.2-11.7-26.2-26.2v-6.6v-61.7
		c0-10.8,4.5-21.2,12.3-28.6l11.3-10.7v-0.4h37.6h97h28.5h2V233.65z M111.2,232.85v-42.8H48.7v42.8H111.2z"/>
</g>
<g>
	<path style="fill:#FDC75B;" d="M198.9,134.25v6h-2h-28.5c0-26.7-21.8-48.5-48.5-48.5c-26.6,0-48.5,21.8-48.5,48.5H33.9h-1.3
		l29.9-80.8c3.8-10.3,13.6-17.1,24.6-17.1h110.5h1.4v11.5v80.4H198.9z"/>
	<path style="fill:#FDC75B;" d="M168.4,140.25h-97c0-26.7,21.8-48.5,48.5-48.5S168.4,113.65,168.4,140.25z"/>
	<rect x="48.7" y="190.05" style="fill:#FDC75B;" width="62.5" height="42.8"/>
	<path style="fill:#FDC75B;" d="M84.5,274.85v24.5c0,14.5-11.7,26.2-26.2,26.2H36.4c-14.5,0-26.2-11.7-26.2-26.2v-51.1
		c0,14.5,11.7,26.2,26.2,26.2h48.1V274.85z"/>
</g>
<path d="M120.9,190.05c0-5.5-4.5-10-10-10h-62c-5.5,0-10,4.5-10,10v43c0,5.5,4.5,10,10,10h62c5.5,0,10-4.5,10-10V190.05z
	 M100.9,223.05h-42v-23h42V223.05z"/>
<path d="M352.7,154.95l-21.3-2c-2.5-8.6-6-16.9-10.4-24.6l13.5-16.3c3.3-4,3-9.8-0.6-13.4l-26.6-26.9c-3.6-3.7-9.5-4-13.5-0.7
	l-16.3,13.5c-7.9-4.5-16.1-7.9-24.5-10.4l-2-21.2c-0.5-5.1-4.8-9-10-9h-32v-29.9c0-5.5-4.5-10-10-10s-10,4.5-10,10v18H87.1
	c-15.1,0-28.7,9.7-34,23.8l-29.9,80.8c0,0.1-0.1,0.3-0.1,0.4l-7.5,7c-9.8,9.3-15.6,22.4-15.6,35.9v68.2v51.1
	c0,20,16.6,35.8,36.6,35.8h21.9c20,0,36.6-15.8,36.6-35.8v-15.2h94v64c0,5.5,4.5,10,10,10s10-4.5,10-10v-24h32c5.2,0,9.5-3.9,10-9.1
	l2-21.3c8.6-2.5,16.9-6,24.6-10.3l16.3,13.5c4,3.3,9.8,3,13.4-0.6l26.9-26.9c3.7-3.6,3.9-9.5,0.6-13.5l-13.5-16.3
	c4.5-7.9,8-16.1,10.4-24.5l21.1-2c5.1-0.5,9.2-4.8,9.2-10v-38.1C361.9,159.75,357.8,155.45,352.7,154.95z M208.9,141.15
	c4.2-1.3,8.5-1.9,12.9-1.9c24.7,0,44.7,20.1,44.7,44.7c0,24.7-20.1,44.7-44.7,44.7c-4.4,0-8.8-0.6-12.9-1.9V141.15z M71.9,62.75
	c2.3-6.3,8.5-10.7,15.2-10.7h101.8v78h-11.3c-4.8-27-28.8-48.5-57.6-48.5s-52.9,21.5-57.6,48.5H46.9L71.9,62.75z M157.1,130.05H82.8
	c4.4-16,19.4-28.5,37.2-28.5C137.7,101.55,152.7,114.05,157.1,130.05z M74.9,299.25c0,8.9-7.6,15.8-16.6,15.8H36.4
	c-8.9,0-16.6-6.8-16.6-15.8v-18.7c5,2.5,10.8,3.5,16.6,3.5h38.5V299.25z M36.5,264.05c-8.9,0-16.6-6.9-16.6-15.9v-68.2
	c0-8,3.5-15.9,9.4-21.4l9-8.5h150.6v39h-33.3c-5.5,0-10,4.5-10,10s4.5,10,10,10h33.3v5h-33.3c-5.5,0-10,4.5-10,10s4.5,10,10,10h33.3
	v30H36.5z M341.9,193.95l-19.1,1.8c-4.3,0.4-8,3.6-8.9,7.8c-2.3,10.8-6.9,21.4-13.3,31.4c-2.4,3.7-2.1,8.4,0.7,11.8l12.2,14.8
	l-14,14l-14.8-12.2c-3.4-2.8-8.3-3.1-11.9-0.6c-9.3,6.2-20.1,10.8-31.3,13.2c-4.3,0.9-7.4,4.5-7.8,8.8l-1.8,19.2h-23v-56.7
	c4.2,0.9,8.5,1.3,12.9,1.3c35.7,0,64.7-29,64.7-64.7s-29-64.7-64.7-64.7c-4.4,0-8.7,0.4-12.9,1.3v-56.4h22.9l1.8,19.1
	c0.4,4.3,3.6,7.9,7.8,8.8c10.8,2.3,21.4,6.8,31.4,13.3c3.7,2.4,8.4,2.1,11.8-0.7l14.7-12.2l13.8,13.9l-12.2,14.8
	c-2.8,3.4-3.1,8.3-0.6,11.9c6.2,9.3,10.8,20.1,13.2,31.3c0.9,4.3,4.7,7.4,9,7.8l19.4,1.8V193.95z"/>
<g>
</g>
<g>
</g>
<g>
</g>
<g>
</g>
<g>
</g>
<g>
</g>
<g>
</g>
<g>
</g>
<g>
</g>
<g>
</g>
<g>
</g>
<g>
</g>
<g>
</g>
<g>
</g>
<g>
</g>
</svg>
