<?xml version="1.0" standalone="no"?>
<!DOCTYPE svg PUBLIC "-//W3C//DTD SVG 20010904//EN"
 "http://www.w3.org/TR/2001/REC-SVG-20010904/DTD/svg10.dtd">
<svg version="1.0" xmlns="http://www.w3.org/2000/svg"
 width="70.000000pt" height="70.000000pt" viewBox="0 0 70.000000 70.000000"
 preserveAspectRatio="xMidYMid meet">
<metadata>
Created by potrace 1.11, written by Peter Selinger 2001-2013
</metadata>
<g transform="translate(0.000000,70.000000) scale(0.100000,-0.100000)"
fill="#000000" stroke="none">
<path d="M368 608 c-3 -21 -7 -23 -95 -23 -56 -1 -97 -6 -106 -13 -8 -7 -27
-45 -41 -84 -15 -39 -35 -82 -46 -96 -17 -21 -20 -40 -20 -142 0 -100 3 -119
18 -133 20 -18 66 -24 100 -13 24 8 47 50 36 67 -3 5 29 9 76 9 l81 0 -2 -48
c-2 -48 5 -72 21 -72 5 0 10 12 12 28 2 19 9 27 23 28 41 2 45 4 45 24 0 30
35 44 62 26 20 -14 23 -13 50 14 30 32 35 46 16 52 -21 7 0 55 27 62 24 6 26
11 23 49 -2 33 -7 43 -23 45 -34 6 -46 31 -28 58 14 23 14 25 -17 54 -29 27
-35 29 -49 16 -22 -18 -54 -6 -61 25 -5 19 -12 24 -35 24 -25 0 -31 4 -35 29
-6 36 -27 46 -32 14z m102 -218 c41 -41 12 -120 -45 -120 -24 0 -25 2 -25 70
0 68 1 70 25 70 14 0 34 -9 45 -20z"/>
</g>
</svg>
