<?xml version="1.0" encoding="iso-8859-1"?><svg viewBox="0 0 512 512" xmlns="http://www.w3.org/2000/svg" xmlns:xlink="http://www.w3.org/1999/xlink"><style>:root>svg{display:none}:root>svg:target{display:block}</style><svg viewBox="0 0 512 512" id="calendar" xmlns="http://www.w3.org/2000/svg"><path d="M452 40h-24V0h-40v40H124V0H84v40H60C26.916 40 0 66.916 0 100v352c0 33.084 26.916 60 60 60h392c33.084 0 60-26.916 60-60V100c0-33.084-26.916-60-60-60zm20 412c0 11.028-8.972 20-20 20H60c-11.028 0-20-8.972-20-20V188h432v264zm0-304H40v-48c0-11.028 8.972-20 20-20h24v40h40V80h264v40h40V80h24c11.028 0 20 8.972 20 20v48z"/><path d="M76 230h40v40H76zM156 230h40v40h-40zM236 230h40v40h-40zM316 230h40v40h-40zM396 230h40v40h-40zM76 310h40v40H76zM156 310h40v40h-40zM236 310h40v40h-40zM316 310h40v40h-40zM76 390h40v40H76zM156 390h40v40h-40zM236 390h40v40h-40zM316 390h40v40h-40zM396 310h40v40h-40z"/></svg><svg viewBox="0 0 362.1 362.1" id="car" xmlns="http://www.w3.org/2000/svg"><g fill="#ed664c"><path d="M351.5 164.85v38.2l-27.9 2.7c-2.7 12.6-7.8 24.2-14.6 34.7l18 21.8-26.9 26.9-21.8-18c-10.2 6.8-22.1 11.9-34.7 14.6l-2.7 28.3h-42V233.75c7 3.2 14.7 5 22.9 5 30.2 0 54.7-24.5 54.7-54.7s-24.5-54.7-54.7-54.7c-8.2 0-15.9 1.8-22.9 5v-80.4h42l2.7 28.3c12.6 2.7 24.2 7.8 34.7 14.6l21.8-18 26.6 26.9-18 21.8c6.8 10.2 11.9 22.1 14.6 34.7l28.2 2.6zM198.9 233.65v40.7H36.4c-14.5 0-26.2-11.7-26.2-26.2v-68.3c0-10.8 4.5-21.2 12.3-28.6l11.3-10.7v-.4h165.1v93.5zm-87.7-.8v-42.8H48.7v42.8h62.5z"/></g><g fill="#fdc75b"><path d="M198.9 134.25v6h-30.5c0-26.7-21.8-48.5-48.5-48.5-26.6 0-48.5 21.8-48.5 48.5H32.6l29.9-80.8c3.8-10.3 13.6-17.1 24.6-17.1H199v91.9h-.1z"/><path d="M168.4 140.25h-97c0-26.7 21.8-48.5 48.5-48.5s48.5 21.9 48.5 48.5zM48.7 190.05h62.5v42.8H48.7zM84.5 274.85v24.5c0 14.5-11.7 26.2-26.2 26.2H36.4c-14.5 0-26.2-11.7-26.2-26.2v-51.1c0 14.5 11.7 26.2 26.2 26.2h48.1v.4z"/></g><path d="M120.9 190.05c0-5.5-4.5-10-10-10h-62c-5.5 0-10 4.5-10 10v43c0 5.5 4.5 10 10 10h62c5.5 0 10-4.5 10-10v-43zm-20 33h-42v-23h42v23z"/><path d="M352.7 154.95l-21.3-2c-2.5-8.6-6-16.9-10.4-24.6l13.5-16.3c3.3-4 3-9.8-.6-13.4l-26.6-26.9c-3.6-3.7-9.5-4-13.5-.7l-16.3 13.5c-7.9-4.5-16.1-7.9-24.5-10.4l-2-21.2c-.5-5.1-4.8-9-10-9h-32v-29.9c0-5.5-4.5-10-10-10s-10 4.5-10 10v18H87.1c-15.1 0-28.7 9.7-34 23.8l-29.9 80.8c0 .1-.1.3-.1.4l-7.5 7c-9.8 9.3-15.6 22.4-15.6 35.9V299.25c0 20 16.6 35.8 36.6 35.8h21.9c20 0 36.6-15.8 36.6-35.8v-15.2h94v64c0 5.5 4.5 10 10 10s10-4.5 10-10v-24h32c5.2 0 9.5-3.9 10-9.1l2-21.3c8.6-2.5 16.9-6 24.6-10.3l16.3 13.5c4 3.3 9.8 3 13.4-.6l26.9-26.9c3.7-3.6 3.9-9.5.6-13.5l-13.5-16.3c4.5-7.9 8-16.1 10.4-24.5l21.1-2c5.1-.5 9.2-4.8 9.2-10v-38.1c-.2-5.2-4.3-9.5-9.4-10zm-143.8-13.8c4.2-1.3 8.5-1.9 12.9-1.9 24.7 0 44.7 20.1 44.7 44.7 0 24.7-20.1 44.7-44.7 44.7-4.4 0-8.8-.6-12.9-1.9v-85.6zm-137-78.4c2.3-6.3 8.5-10.7 15.2-10.7h101.8v78h-11.3c-4.8-27-28.8-48.5-57.6-48.5s-52.9 21.5-57.6 48.5H46.9l25-67.3zm85.2 67.3H82.8c4.4-16 19.4-28.5 37.2-28.5 17.7 0 32.7 12.5 37.1 28.5zm-82.2 169.2c0 8.9-7.6 15.8-16.6 15.8H36.4c-8.9 0-16.6-6.8-16.6-15.8v-18.7c5 2.5 10.8 3.5 16.6 3.5h38.5v15.2zm-38.4-35.2c-8.9 0-16.6-6.9-16.6-15.9v-68.2c0-8 3.5-15.9 9.4-21.4l9-8.5h150.6v39h-33.3c-5.5 0-10 4.5-10 10s4.5 10 10 10h33.3v5h-33.3c-5.5 0-10 4.5-10 10s4.5 10 10 10h33.3v30H36.5zm305.4-70.1l-19.1 1.8c-4.3.4-8 3.6-8.9 7.8-2.3 10.8-6.9 21.4-13.3 31.4-2.4 3.7-2.1 8.4.7 11.8l12.2 14.8-14 14-14.8-12.2c-3.4-2.8-8.3-3.1-11.9-.6-9.3 6.2-20.1 10.8-31.3 13.2-4.3.9-7.4 4.5-7.8 8.8l-1.8 19.2h-23v-56.7c4.2.9 8.5 1.3 12.9 1.3 35.7 0 64.7-29 64.7-64.7s-29-64.7-64.7-64.7c-4.4 0-8.7.4-12.9 1.3v-56.4h22.9l1.8 19.1c.4 4.3 3.6 7.9 7.8 8.8 10.8 2.3 21.4 6.8 31.4 13.3 3.7 2.4 8.4 2.1 11.8-.7l14.7-12.2 13.8 13.9-12.2 14.8c-2.8 3.4-3.1 8.3-.6 11.9 6.2 9.3 10.8 20.1 13.2 31.3.9 4.3 4.7 7.4 9 7.8l19.4 1.8v20.1z"/></svg><svg viewBox="0 0 409.806 409.806" id="close" xmlns="http://www.w3.org/2000/svg"><path d="M228.929 205.01L404.596 29.343c6.78-6.548 6.968-17.352.42-24.132-6.548-6.78-17.352-6.968-24.132-.42-.142.137-.282.277-.42.42L204.796 180.878 29.129 5.21c-6.78-6.548-17.584-6.36-24.132.42-6.388 6.614-6.388 17.099 0 23.713L180.664 205.01 4.997 380.677c-6.663 6.664-6.663 17.468 0 24.132 6.664 6.662 17.468 6.662 24.132 0l175.667-175.667 175.667 175.667c6.78 6.548 17.584 6.36 24.132-.42 6.387-6.614 6.387-17.099 0-23.712L228.929 205.01z"/></svg><svg viewBox="0 0 32 32" id="eye" xmlns="http://www.w3.org/2000/svg"><path d="M16 9C7 9 3 16 3 16s4 7 13 7 13-7 13-7-4-7-13-7zm0 1c-8 0-11.8 6-11.8 6S8 22 16 22s11.8-6 11.8-6S24 10 16 10zm0 10a4 4 0 100-8 4 4 0 000 8zm0-1a3 3 0 100-6 3 3 0 000 6zm0-2a1 1 0 100-2 1 1 0 000 2z"  fill-rule="evenodd"/></svg><svg viewBox="-3 0 512 512" id="guarantee" xmlns="http://www.w3.org/2000/svg"><path d="M425.328 319.285c21.395-32.492 33.867-71.355 33.867-113.086C459.195 92.5 366.691 0 252.992 0S46.793 92.5 46.793 206.2c0 41.73 12.473 80.593 33.863 113.085L0 436.915l92.293-17.208L109.503 512l76.063-110.934c21.141 7.336 43.825 11.332 67.426 11.332 23.606 0 46.29-3.996 67.426-11.332L396.484 512l17.207-92.293 92.293 17.207zM125.813 434.852l-9.387-50.344-50.34 9.39 33.969-49.543a207.545 207.545 0 0057.312 44.485zM76.969 206.199c0-97.058 78.965-176.023 176.023-176.023 97.063 0 176.028 78.965 176.028 176.023 0 97.063-78.965 176.028-176.028 176.028-97.058 0-176.023-78.965-176.023-176.028zm312.59 178.309l-9.387 50.344-31.55-46.012a207.545 207.545 0 0057.312-44.485l33.968 49.54zm0 0"/><path d="M216.234 251.484l-49.062-49.058-21.336 21.336 70.398 70.398 143.918-143.914-21.336-21.336zm0 0"/></svg><svg viewBox="0 0 511.639 511.639" id="phone-call" xmlns="http://www.w3.org/2000/svg"><path d="M504.982 376.258h-.021c-19.435-36.715-81.472-73.813-88.725-78.059-14.4-8.213-29.696-10.731-42.987-6.997-10.411 2.88-18.944 9.301-24.768 18.624-8.107 9.664-18.155 21.035-20.309 22.933-16.512 11.221-26.944 10.133-41.28-4.224L183.083 224.748c-14.336-14.357-15.403-24.768-4.757-40.533 2.411-2.859 13.824-12.949 23.488-21.056 9.323-5.824 15.723-14.357 18.624-24.768 3.691-13.333 1.195-28.587-7.125-43.221-4.117-7.019-41.216-69.077-77.952-88.512-22.208-11.734-49.046-7.702-66.795 10.069L45.633 39.639C4.203 81.068-46.229 169.644 81.43 297.324L214.315 430.21c61.141 61.141 113.301 81.429 155.627 81.429 46.059 0 80.448-24.043 102.037-45.632l22.912-22.912c17.771-17.771 21.824-44.629 10.091-66.837z"/></svg><svg viewBox="0 0 31.49 31.49" id="right-arrow" xmlns="http://www.w3.org/2000/svg"><path d="M21.205 5.007a1.112 1.112 0 00-1.587 0 1.12 1.12 0 000 1.571l8.047 8.047H1.111A1.106 1.106 0 000 15.737c0 .619.492 1.127 1.111 1.127h26.554l-8.047 8.032c-.429.444-.429 1.159 0 1.587a1.112 1.112 0 001.587 0l9.952-9.952a1.093 1.093 0 000-1.571l-9.952-9.953z" fill="#1e201d"/></svg><svg viewBox="0 0 511.999 511.999" id="searcfh" xmlns="http://www.w3.org/2000/svg"><path d="M508.874 478.708L360.142 329.976c28.21-34.827 45.191-79.103 45.191-127.309C405.333 90.917 314.416 0 202.666 0S0 90.917 0 202.667s90.917 202.667 202.667 202.667c48.206 0 92.482-16.982 127.309-45.191l148.732 148.732c4.167 4.165 10.919 4.165 15.086 0l15.081-15.082c4.165-4.166 4.165-10.92-.001-15.085zM202.667 362.667c-88.229 0-160-71.771-160-160s71.771-160 160-160 160 71.771 160 160-71.771 160-160 160z"/></svg><svg viewBox="0 0 511.999 511.999" id="search" xmlns="http://www.w3.org/2000/svg"><path d="M508.874 478.708L360.142 329.976c28.21-34.827 45.191-79.103 45.191-127.309C405.333 90.917 314.416 0 202.666 0S0 90.917 0 202.667s90.917 202.667 202.667 202.667c48.206 0 92.482-16.982 127.309-45.191l148.732 148.732c4.167 4.165 10.919 4.165 15.086 0l15.081-15.082c4.165-4.166 4.165-10.92-.001-15.085zM202.667 362.667c-88.229 0-160-71.771-160-160s71.771-160 160-160 160 71.771 160 160-71.771 160-160 160z"/></svg><svg viewBox="0 0 478.703 478.703" id="settings" xmlns="http://www.w3.org/2000/svg"><path d="M454.2 189.101l-33.6-5.7c-3.5-11.3-8-22.2-13.5-32.6l19.8-27.7c8.4-11.8 7.1-27.9-3.2-38.1l-29.8-29.8c-5.6-5.6-13-8.7-20.9-8.7-6.2 0-12.1 1.9-17.1 5.5l-27.8 19.8c-10.8-5.7-22.1-10.4-33.8-13.9l-5.6-33.2a29.54 29.54 0 00-29.2-24.7h-42.1c-14.5 0-26.8 10.4-29.2 24.7l-5.8 34c-11.2 3.5-22.1 8.1-32.5 13.7l-27.5-19.8c-5-3.6-11-5.5-17.2-5.5-7.9 0-15.4 3.1-20.9 8.7l-29.9 29.8c-10.2 10.2-11.6 26.3-3.2 38.1l20 28.1c-5.5 10.5-9.9 21.4-13.3 32.7l-33.2 5.6a29.54 29.54 0 00-24.7 29.2v42.1c0 14.5 10.4 26.8 24.7 29.2l34 5.8c3.5 11.2 8.1 22.1 13.7 32.5l-19.7 27.4c-8.4 11.8-7.1 27.9 3.2 38.1l29.8 29.8c5.6 5.6 13 8.7 20.9 8.7 6.2 0 12.1-1.9 17.1-5.5l28.1-20c10.1 5.3 20.7 9.6 31.6 13l5.6 33.6a29.54 29.54 0 0029.2 24.7h42.2c14.5 0 26.8-10.4 29.2-24.7l5.7-33.6c11.3-3.5 22.2-8 32.6-13.5l27.7 19.8c5 3.6 11 5.5 17.2 5.5 7.9 0 15.3-3.1 20.9-8.7l29.8-29.8c10.2-10.2 11.6-26.3 3.2-38.1l-19.8-27.8c5.5-10.5 10.1-21.4 13.5-32.6l33.6-5.6a29.54 29.54 0 0024.7-29.2v-42.1c.2-14.5-10.2-26.8-24.5-29.2zm-2.3 71.3c0 1.3-.9 2.4-2.2 2.6l-42 7c-5.3.9-9.5 4.8-10.8 9.9-3.8 14.7-9.6 28.8-17.4 41.9-2.7 4.6-2.5 10.3.6 14.7l24.7 34.8c.7 1 .6 2.5-.3 3.4l-29.8 29.8c-.7.7-1.4.8-1.9.8-.6 0-1.1-.2-1.5-.5l-34.7-24.7c-4.3-3.1-10.1-3.3-14.7-.6-13.1 7.8-27.2 13.6-41.9 17.4-5.2 1.3-9.1 5.6-9.9 10.8l-7.1 42c-.2 1.3-1.3 2.2-2.6 2.2h-42.1c-1.3 0-2.4-.9-2.6-2.2l-7-42c-.9-5.3-4.8-9.5-9.9-10.8-14.3-3.7-28.1-9.4-41-16.8-2.1-1.2-4.5-1.8-6.8-1.8-2.7 0-5.5.8-7.8 2.5l-35 24.9c-.5.3-1 .5-1.5.5-.4 0-1.2-.1-1.9-.8l-29.8-29.8c-.9-.9-1-2.3-.3-3.4l24.6-34.5c3.1-4.4 3.3-10.2.6-14.8-7.8-13-13.8-27.1-17.6-41.8-1.4-5.1-5.6-9-10.8-9.9l-42.3-7.2c-1.3-.2-2.2-1.3-2.2-2.6v-42.1c0-1.3.9-2.4 2.2-2.6l41.7-7c5.3-.9 9.6-4.8 10.9-10 3.7-14.7 9.4-28.9 17.1-42 2.7-4.6 2.4-10.3-.7-14.6l-24.9-35c-.7-1-.6-2.5.3-3.4l29.8-29.8c.7-.7 1.4-.8 1.9-.8.6 0 1.1.2 1.5.5l34.5 24.6c4.4 3.1 10.2 3.3 14.8.6 13-7.8 27.1-13.8 41.8-17.6 5.1-1.4 9-5.6 9.9-10.8l7.2-42.3c.2-1.3 1.3-2.2 2.6-2.2h42.1c1.3 0 2.4.9 2.6 2.2l7 41.7c.9 5.3 4.8 9.6 10 10.9 15.1 3.8 29.5 9.7 42.9 17.6 4.6 2.7 10.3 2.5 14.7-.6l34.5-24.8c.5-.3 1-.5 1.5-.5.4 0 1.2.1 1.9.8l29.8 29.8c.9.9 1 2.3.3 3.4l-24.7 34.7c-3.1 4.3-3.3 10.1-.6 14.7 7.8 13.1 13.6 27.2 17.4 41.9 1.3 5.2 5.6 9.1 10.8 9.9l42 7.1c1.3.2 2.2 1.3 2.2 2.6v42.1h-.1z"/><path d="M239.4 136.001c-57 0-103.3 46.3-103.3 103.3s46.3 103.3 103.3 103.3 103.3-46.3 103.3-103.3-46.3-103.3-103.3-103.3zm0 179.6c-42.1 0-76.3-34.2-76.3-76.3s34.2-76.3 76.3-76.3 76.3 34.2 76.3 76.3-34.2 76.3-76.3 76.3z"/></svg><svg viewBox="0 0 478.703 478.703" id="settings2" xmlns="http://www.w3.org/2000/svg"><path d="M454.2 189.101l-33.6-5.7c-3.5-11.3-8-22.2-13.5-32.6l19.8-27.7c8.4-11.8 7.1-27.9-3.2-38.1l-29.8-29.8c-5.6-5.6-13-8.7-20.9-8.7-6.2 0-12.1 1.9-17.1 5.5l-27.8 19.8c-10.8-5.7-22.1-10.4-33.8-13.9l-5.6-33.2a29.54 29.54 0 00-29.2-24.7h-42.1c-14.5 0-26.8 10.4-29.2 24.7l-5.8 34c-11.2 3.5-22.1 8.1-32.5 13.7l-27.5-19.8c-5-3.6-11-5.5-17.2-5.5-7.9 0-15.4 3.1-20.9 8.7l-29.9 29.8c-10.2 10.2-11.6 26.3-3.2 38.1l20 28.1c-5.5 10.5-9.9 21.4-13.3 32.7l-33.2 5.6a29.54 29.54 0 00-24.7 29.2v42.1c0 14.5 10.4 26.8 24.7 29.2l34 5.8c3.5 11.2 8.1 22.1 13.7 32.5l-19.7 27.4c-8.4 11.8-7.1 27.9 3.2 38.1l29.8 29.8c5.6 5.6 13 8.7 20.9 8.7 6.2 0 12.1-1.9 17.1-5.5l28.1-20c10.1 5.3 20.7 9.6 31.6 13l5.6 33.6a29.54 29.54 0 0029.2 24.7h42.2c14.5 0 26.8-10.4 29.2-24.7l5.7-33.6c11.3-3.5 22.2-8 32.6-13.5l27.7 19.8c5 3.6 11 5.5 17.2 5.5 7.9 0 15.3-3.1 20.9-8.7l29.8-29.8c10.2-10.2 11.6-26.3 3.2-38.1l-19.8-27.8c5.5-10.5 10.1-21.4 13.5-32.6l33.6-5.6a29.54 29.54 0 0024.7-29.2v-42.1c.2-14.5-10.2-26.8-24.5-29.2zm-2.3 71.3c0 1.3-.9 2.4-2.2 2.6l-42 7c-5.3.9-9.5 4.8-10.8 9.9-3.8 14.7-9.6 28.8-17.4 41.9-2.7 4.6-2.5 10.3.6 14.7l24.7 34.8c.7 1 .6 2.5-.3 3.4l-29.8 29.8c-.7.7-1.4.8-1.9.8-.6 0-1.1-.2-1.5-.5l-34.7-24.7c-4.3-3.1-10.1-3.3-14.7-.6-13.1 7.8-27.2 13.6-41.9 17.4-5.2 1.3-9.1 5.6-9.9 10.8l-7.1 42c-.2 1.3-1.3 2.2-2.6 2.2h-42.1c-1.3 0-2.4-.9-2.6-2.2l-7-42c-.9-5.3-4.8-9.5-9.9-10.8-14.3-3.7-28.1-9.4-41-16.8-2.1-1.2-4.5-1.8-6.8-1.8-2.7 0-5.5.8-7.8 2.5l-35 24.9c-.5.3-1 .5-1.5.5-.4 0-1.2-.1-1.9-.8l-29.8-29.8c-.9-.9-1-2.3-.3-3.4l24.6-34.5c3.1-4.4 3.3-10.2.6-14.8-7.8-13-13.8-27.1-17.6-41.8-1.4-5.1-5.6-9-10.8-9.9l-42.3-7.2c-1.3-.2-2.2-1.3-2.2-2.6v-42.1c0-1.3.9-2.4 2.2-2.6l41.7-7c5.3-.9 9.6-4.8 10.9-10 3.7-14.7 9.4-28.9 17.1-42 2.7-4.6 2.4-10.3-.7-14.6l-24.9-35c-.7-1-.6-2.5.3-3.4l29.8-29.8c.7-.7 1.4-.8 1.9-.8.6 0 1.1.2 1.5.5l34.5 24.6c4.4 3.1 10.2 3.3 14.8.6 13-7.8 27.1-13.8 41.8-17.6 5.1-1.4 9-5.6 9.9-10.8l7.2-42.3c.2-1.3 1.3-2.2 2.6-2.2h42.1c1.3 0 2.4.9 2.6 2.2l7 41.7c.9 5.3 4.8 9.6 10 10.9 15.1 3.8 29.5 9.7 42.9 17.6 4.6 2.7 10.3 2.5 14.7-.6l34.5-24.8c.5-.3 1-.5 1.5-.5.4 0 1.2.1 1.9.8l29.8 29.8c.9.9 1 2.3.3 3.4l-24.7 34.7c-3.1 4.3-3.3 10.1-.6 14.7 7.8 13.1 13.6 27.2 17.4 41.9 1.3 5.2 5.6 9.1 10.8 9.9l42 7.1c1.3.2 2.2 1.3 2.2 2.6v42.1h-.1z"/><path d="M239.4 136.001c-57 0-103.3 46.3-103.3 103.3s46.3 103.3 103.3 103.3 103.3-46.3 103.3-103.3-46.3-103.3-103.3-103.3zm0 179.6c-42.1 0-76.3-34.2-76.3-76.3s34.2-76.3 76.3-76.3 76.3 34.2 76.3 76.3-34.2 76.3-76.3 76.3z"/></svg><svg viewBox="0 0 511 512" id="tools" xmlns="http://www.w3.org/2000/svg"><path d="M347.34 155.148c-5.52 0-10 4.47-10 9.997 0 5.523 4.48 10 10 10 5.531 0 10-4.477 10-10a9.988 9.988 0 00-10-9.997zm0 0M165.645 336.84c-5.532 0-10 4.48-10 10a9.99 9.99 0 0010 10c5.52 0 10-4.469 10-10 0-5.52-4.48-10-10-10zm0 0"/><path d="M500.059 61.52a9.992 9.992 0 00-9.36 2.695L449.242 106h-19.875l-21.879-22.668V63.18l40.864-41.473a9.993 9.993 0 002.601-9.336 9.994 9.994 0 00-6.531-7.156C434.156 1.754 423.414 0 412.488 0c-32.57 0-62.16 15.188-81.183 41.668-17.805 24.789-23.293 55.168-15.43 84.242l-73.66 73.66-122.719-123V52.43a9.998 9.998 0 00-4.855-8.575L43.934 1.425A9.992 9.992 0 0031.719 2.93L3.438 31.207a10.01 10.01 0 00-1.504 12.219l42.421 70.707a10 10 0 008.57 4.855l24.134.008 122.73 123-73.379 73.379c-29.074-7.86-59.469-2.363-84.27 15.453C15.677 349.84.5 379.422.5 411.992c0 10.922 1.754 21.668 5.215 31.93a10 10 0 0016.574 3.852l41.453-41.782h19.985l22.77 22.77v19.984L64.714 490.2a10 10 0 003.851 16.574c10.262 3.461 21.008 5.215 31.93 5.215 32.57 0 62.149-15.18 81.164-41.644 17.817-24.801 23.313-55.192 15.453-84.266l58.934-58.933 13.5 14.664-6.195 6.191c-3.907 3.906-3.907 10.238 0 14.145 3.906 3.902 10.234 3.902 14.144 0l5.61-5.61L409.77 494.121c.093.102.19.2.289.297 23.437 23.437 61.41 23.445 84.859-.004 23.383-23.394 23.383-61.46 0-84.855-.102-.102-.207-.2-.313-.297l-137.8-126.422 5.547-5.547c3.906-3.902 3.906-10.234 0-14.14s-10.235-3.907-14.145 0l-6.152 6.156-14.692-13.485 59.219-59.219a100.198 100.198 0 0025.906 3.391c55.14 0 99.996-44.86 99.996-99.996 0-10.926-1.754-21.668-5.214-31.934a9.99 9.99 0 00-7.211-6.546zM88.285 101.934c-1.875-1.88-4.418-2.836-7.074-2.836l-22.617-.008-35.492-59.258L40.34 22.594l59.156 35.5V80.71a9.997 9.997 0 002.922 7.062l125.656 125.942-14.144 14.14zm254.363 195.062l138.27 126.848c15.445 15.61 15.398 40.883-.145 56.433-15.578 15.578-40.796 15.625-56.437.137L297.258 342.38zm-14.75-13.535L283.7 327.652l-13.5-14.664 43.008-43.011zm84.59-103.465a79.917 79.917 0 01-25.558-4.168 10.017 10.017 0 00-10.262 2.406c-50.133 50.133-158.156 158.153-197.934 197.934a9.998 9.998 0 00-2.406 10.266c8.313 24.683 4.336 51.011-10.914 72.242-15.207 21.168-38.871 33.312-64.918 33.312-2.926 0-5.836-.16-8.719-.468l31.762-31.516a9.997 9.997 0 002.957-7.098v-28.289a10 10 0 00-2.93-7.07l-28.628-28.629a10 10 0 00-7.07-2.93h-28.29a10.012 10.012 0 00-7.101 2.957l-31.512 31.762a80.897 80.897 0 01-.469-8.719c0-26.05 12.14-49.71 33.313-64.918 21.226-15.25 47.558-19.23 72.246-10.914a9.993 9.993 0 0010.261-2.406c.551-.547 197.793-197.793 197.934-197.934a9.999 9.999 0 002.406-10.261c-8.316-24.684-4.347-51.004 10.89-72.22C362.767 32.149 386.435 20 412.485 20c3.016 0 6.012.168 8.98.496l-31.1 31.566a9.993 9.993 0 00-2.876 7.016v28.29a9.988 9.988 0 002.805 6.944l27.629 28.63a9.992 9.992 0 007.195 3.054h28.29a9.994 9.994 0 007.097-2.957l31.512-31.758c.312 2.883.468 5.793.468 8.719 0 44.11-35.886 79.996-79.996 79.996zm0 0"/><path d="M311.988 186.355L186.852 311.492c-3.903 3.903-3.903 10.235 0 14.14 3.906 3.907 10.238 3.907 14.144 0l125.137-125.136c3.906-3.902 3.906-10.234 0-14.14s-10.238-3.907-14.145 0zm0 0M438.355 452c3.907 3.895 10.239 3.895 14.145-.023 3.898-3.91 3.887-10.243-.023-14.141l-90.137-89.848c-3.91-3.898-10.246-3.886-14.14.024-3.903 3.914-3.891 10.242.019 14.14zm0 0"/></svg><svg viewBox="0 0 512 512" id="user" xmlns="http://www.w3.org/2000/svg"><path d="M374.45 332.463c-.407-.044-59.344 1.695-68.107-61.463 9.737-6.794 18.711-15.614 26.617-26.316 15.38-20.82 25.29-46.938 28.82-75.189a11.457 11.457 0 002.893-4.071c6.387-15.215 9.626-31.461 9.626-48.289C374.299 52.547 325.578 0 265.688 0c-15.663 0-30.859 3.608-45.211 10.733a79.443 79.443 0 00-15.985 2.867c-24.597 7.107-44.613 25.344-56.362 51.354-11.406 25.254-13.654 54.983-6.328 83.712a134.862 134.862 0 005.85 17.731 11.459 11.459 0 002.705 3.938c5.718 44.095 26.699 80.63 55.307 100.577-8.79 63.265-67.706 61.509-68.112 61.553-42.382 1.438-76.425 36.341-76.425 79.067v88.941c0 6.367 5.161 11.528 11.528 11.528h366.691c6.366 0 11.529-5.161 11.529-11.528v-88.941c-.001-42.728-34.041-77.632-76.425-79.069zM210.893 35.751c4.207-1.216 8.65-1.937 13.206-2.142a11.517 11.517 0 004.843-1.311c11.671-6.132 24.035-9.241 36.747-9.241 47.174 0 85.554 42.203 85.554 94.078 0 1.557-.044 3.106-.112 4.649-9.15-9.292-21.863-15.067-35.902-15.067h-78.571c-4.675 0-9.112-1.468-12.833-4.246a21.482 21.482 0 01-7.1-9.216 14.062 14.062 0 00-13.972-8.814 14.15 14.15 0 00-12.816 10.579c-4.553 17.496-13.632 33.612-26.088 46.681-11.59-47.699 9.327-95.053 47.044-105.95zm-10.03 199.389c-15.001-18.326-24.825-43.073-27.939-70.166 14.547-12.965 26.047-29.099 33.534-46.995a44.952 44.952 0 003.575 2.97c7.736 5.773 16.942 8.826 26.626 8.826h78.571c11.117 0 20.699 6.668 24.975 16.211-.001.082-.013.16-.013.242 0 65.078-37.76 118.023-84.174 118.023-20.2.001-39.789-10.338-55.155-29.111zm26.489 47.093c9.139 3.307 18.752 5.076 28.666 5.076 9.835 0 19.444-1.712 28.643-5.015 4.221 21.991 16.448 41.158 33.527 54.353l-60.535 86.208c-.395.563-.944.848-1.632.848-.687 0-1.236-.286-1.63-.847l-60.55-86.228c17.08-13.21 29.303-32.391 33.511-54.395zm200.465 206.71H84.183V411.53c0-30.922 25.157-56.079 56.079-56.079.42 0 18.971-.451 33.629-7.112l61.629 87.766a25.072 25.072 0 0020.5 10.655h.001a25.073 25.073 0 0020.5-10.655l61.618-87.752c16.717 7.099 33.18 7.099 33.6 7.099 30.922 0 56.078 25.157 56.078 56.079v77.412z"/></svg></svg>